<?xml version="1.0" encoding="utf-8"?>
<!-- TronBrowser mark: emblem only, no wordmark, transparent background -->
<svg version="1.1" id="Mark" xmlns="http://www.w3.org/2000/svg" xmlns:xlink="http://www.w3.org/1999/xlink"
	 viewBox="144 100 248 248" xml:space="preserve">
<style type="text/css">
	.st0{fill:#FFFFFF;}
	.st1{fill:#3EE8FF;}
</style>
<g>
	<path class="st0" d="M247.5,189.2c-2.2,0-4,0-5.8,0c-16,0-32.1,0.1-48.1,0c-7.2,0-14-1.5-19-7.2c-5.7-6.5-8.9-14.1-9.2-22.9
		c-0.1-2,0.1-3.9,0.2-5.9c0.1-2,0.8-3,3.1-3c22.1,0.1,44.3,0,66.4,0c46,0,92,0,138,0c3.3,0,3.5,0.1,3.3,3.5
		c-0.5,8.5-4.4,15.6-9.7,21.9c-8.3,9.9-19,14.1-31.7,14.1c-9.5,0-19.1-0.2-28.6,0.6c-17.9,1.5-33.6,8.6-46.8,21
		c-12.8,12-22.8,26.3-32.1,41.1c-1.1,1.8-2.1,3.8-3.4,5.4c-0.9,1.2-2.2,2.3-3.5,2.9c-0.7,0.4-2.4,0.2-2.8-0.4
		c-0.6-0.8-0.9-2.4-0.5-3.3c3.8-8.7,7.7-17.2,11.6-25.9c5.9-13,11.7-26.1,17.6-39.1C246.6,191.4,246.9,190.5,247.5,189.2z"/>
	<path class="st1" d="M296.3,204.3c1.5,2.5,0.8,4.8-0.4,7.1c-7.7,15.6-15.4,31.3-23.1,46.9c-8.9,18.1-17.8,36.1-26.8,54.2
		c-5.2,10.5-13.8,16.6-25.5,17.8c-5.7,0.6-11.5,0.4-17.2,0.3c-3-0.1-4.3-2.4-3.1-5.1c2.8-6.2,5.7-12.4,8.7-18.5
		c7.2-15.2,14.3-30.5,21.8-45.6c9.6-19.1,22.6-35.3,40.8-46.9c7-4.5,14.6-7.9,22.8-9.8C295,204.5,295.7,204.4,296.3,204.3z"/>
	<path class="st1" d="M254.7,311.3c2.7-5.8,5.3-11.4,8-16.9c0.2-0.4,1.2-0.8,1.8-0.7c20.2,3.2,38.7-1.7,55.8-12.4
		c13.7-8.6,24-20.4,31.3-34.8c7.7-15.2,10.7-31.3,9.3-48.3c-0.1-0.8,0.2-1.8,0.7-2.4c4.5-5.3,9.1-10.6,13.7-15.9
		c0.3-0.3,0.6-0.5,1.3-1.1c0.6,2.7,1.4,5,1.7,7.4c4.1,26.8,0.3,52.2-13.8,75.6c-15.2,25.2-37,42-65.7,49.4
		c-13.9,3.6-28,3.5-42.1,0.7C256.2,311.7,255.7,311.6,254.7,311.3z"/>
	<path class="st0" d="M347.4,144.3c-3.6,0-7.3-0.3-11,0.1c-6.9,0.6-12.7-1.4-18.9-4.9c-27.1-15.2-54.6-14.7-81.8,0.2
		c-0.7,0.4-1.6,0.7-2.1,1.2c-3.6,3.5-7.9,3.7-12.6,3.5c-4.1-0.2-8.2-0.1-12.3,0c-1.6,0-2.7-0.5-2.9-2c-0.1-1,0.2-2.5,0.9-3.1
		c22.9-22,50.3-31.5,81.9-28.2c22.5,2.4,41.9,11.9,57.8,28.2C348,140.8,348.1,141.2,347.4,144.3z"/>
	<path class="st0" d="M207,289.4c-4.7-5.2-9.2-9.7-13.2-14.7c-14.9-19.1-21.8-40.9-21.3-65c0.1-4.2,0.9-8.3,1.2-12.5
		c0.1-1.6,0.9-2,2.4-2c3.7,0.1,7.4,0,11.1,0c3.4,0,4.5,1.2,3.9,4.5c-1.6,9.1-1.6,18.2-0.1,27.2c2.6,15.4,8.9,29,19.4,40.6
		c4.5,5,4.5,4.9,1.6,11C210.6,281.9,209,285.2,207,289.4z"/>
</g>
</svg>
