<?xml version="1.0" encoding="utf-8"?>
<!-- Generator: Adobe Illustrator 27.3.1, SVG Export Plug-In . SVG Version: 6.00 Build 0)  -->
<svg version="1.1" id="Layer_1" xmlns="http://www.w3.org/2000/svg" xmlns:xlink="http://www.w3.org/1999/xlink" x="0px" y="0px"
	 viewBox="0 0 530 530" style="enable-background:new 0 0 530 530;" xml:space="preserve">
<style type="text/css">
	.st0{fill:url(#SVGID_1_);}
	.st1{fill:#FFFFFF;}
	.st2{fill:#3EE8FF;}
</style>
<radialGradient id="SVGID_1_" cx="265.0299" cy="264.9708" r="263.5507" fx="277.8085" fy="262.892" gradientTransform="matrix(1.0436 0 0 -1.0264 -9.8352 541.966)" gradientUnits="userSpaceOnUse">
	<stop  offset="7.138707e-02" style="stop-color:#031A5A"/>
	<stop  offset="1" style="stop-color:#000000"/>
</radialGradient>
<rect x="-8.3" y="-0.5" class="st0" width="550.1" height="541"/>
<g>
	<path class="st1" d="M245,190c-2.2,0-4,0-5.8,0c-16,0-32.1,0.1-48.1,0c-7.2,0-14-1.5-19-7.2c-5.7-6.5-8.9-14.1-9.2-22.9
		c-0.1-2,0.1-3.9,0.2-5.9c0.1-2,0.8-3,3.1-3c22.1,0.1,44.3,0,66.4,0c46,0,92,0,138,0c3.3,0,3.5,0.1,3.3,3.5
		c-0.5,8.5-4.4,15.6-9.7,21.9c-8.3,9.9-19,14.1-31.7,14.1c-9.5,0-19.1-0.2-28.6,0.6c-17.9,1.5-33.6,8.6-46.8,21
		c-12.8,12-22.8,26.3-32.1,41.1c-1.1,1.8-2.1,3.8-3.4,5.4c-0.9,1.2-2.2,2.3-3.5,2.9c-0.7,0.4-2.4,0.2-2.8-0.4
		c-0.6-0.8-0.9-2.4-0.5-3.3c3.8-8.7,7.7-17.2,11.6-25.9c5.9-13,11.7-26.1,17.6-39.1C244.2,192.2,244.4,191.4,245,190z"/>
	<path class="st2" d="M293.8,205.1c1.5,2.5,0.8,4.8-0.4,7.1c-7.7,15.6-15.4,31.3-23.1,46.9c-8.9,18.1-17.8,36.1-26.8,54.2
		c-5.2,10.5-13.8,16.6-25.5,17.8c-5.7,0.6-11.5,0.4-17.2,0.3c-3-0.1-4.3-2.4-3.1-5.1c2.8-6.2,5.7-12.4,8.7-18.5
		c7.2-15.2,14.3-30.5,21.8-45.6c9.6-19.1,22.6-35.3,40.8-46.9c7-4.5,14.6-7.9,22.8-9.8C292.5,205.3,293.2,205.2,293.8,205.1z"/>
	<path class="st2" d="M252.2,312.1c2.7-5.8,5.3-11.4,8-16.9c0.2-0.4,1.2-0.8,1.8-0.7c20.2,3.2,38.7-1.7,55.8-12.4
		c13.7-8.6,24-20.4,31.3-34.8c7.7-15.2,10.7-31.3,9.3-48.3c-0.1-0.8,0.2-1.8,0.7-2.4c4.5-5.3,9.1-10.6,13.7-15.9
		c0.3-0.3,0.6-0.5,1.3-1.1c0.6,2.7,1.4,5,1.7,7.4c4.1,26.8,0.3,52.2-13.8,75.6c-15.2,25.2-37,42-65.7,49.4
		c-13.9,3.6-28,3.5-42.1,0.7C253.7,312.6,253.2,312.4,252.2,312.1z"/>
	<path class="st1" d="M344.9,145.1c-3.6,0-7.3-0.3-11,0.1c-6.9,0.6-12.7-1.4-18.9-4.9c-27.1-15.2-54.6-14.7-81.8,0.2
		c-0.7,0.4-1.6,0.7-2.1,1.2c-3.6,3.5-7.9,3.7-12.6,3.5c-4.1-0.2-8.2-0.1-12.3,0c-1.6,0-2.7-0.5-2.9-2c-0.1-1,0.2-2.5,0.9-3.1
		c22.9-22,50.3-31.5,81.9-28.2c22.5,2.4,41.9,11.9,57.8,28.2C345.6,141.6,345.6,142.1,344.9,145.1z"/>
	<path class="st1" d="M204.5,290.2c-4.7-5.2-9.2-9.7-13.2-14.7c-14.9-19.1-21.8-40.9-21.3-65c0.1-4.2,0.9-8.3,1.2-12.5
		c0.1-1.6,0.9-2,2.4-2c3.7,0.1,7.4,0,11.1,0c3.4,0,4.5,1.2,3.9,4.5c-1.6,9.1-1.6,18.2-0.1,27.2c2.6,15.4,8.9,29,19.4,40.6
		c4.5,5,4.5,4.9,1.6,11C208.1,282.7,206.5,286,204.5,290.2z"/>
	<path class="st2" d="M153.7,386.6c-2.9-0.2-5.9-0.2-8.8-0.7c-4.2-0.8-6.4-3.6-6.6-7.8c-0.2-3.8-0.2-7.6,0.1-11.3
		c0.3-5,3.5-7.8,8.9-8c4.3-0.2,8.7-0.2,13.1,0c5.2,0.2,8.5,3.6,8.7,8.8c0.1,3.4,0.2,6.9-0.1,10.3c-0.3,4.9-3.6,8.1-8.6,8.4
		c-2.2,0.1-4.4,0-6.7,0C153.7,386.4,153.7,386.5,153.7,386.6z M153.8,363.9C153.8,363.9,153.8,363.9,153.8,363.9
		c-1.9,0-3.8-0.1-5.7,0c-2.7,0.1-4.1,1.6-4.1,4.2c-0.1,3,0,5.9,0.1,8.9c0.1,2.1,1.1,3.8,3.3,3.9c4.2,0.2,8.4,0.1,12.5,0
		c2-0.1,3.1-1.5,3.2-3.5c0.1-3.2,0.2-6.4,0-9.6c-0.1-2.6-1.5-3.8-4.1-4C157.3,363.8,155.5,363.9,153.8,363.9z"/>
	<path class="st2" d="M180.5,359c3.4-0.8,6-0.1,8.3,2.8c4,5.1,8.4,9.9,12.7,14.7c0.2,0.2,0.4,0.3,0.9,0.8c0-6.2,0-12.1,0-18.5
		c1.8,0,3.4-0.1,4.9,0.1c0.5,0.1,1.2,0.9,1.2,1.4c0,8.1,0,16.3-0.1,24.4c0,0.5-0.3,1.2-0.7,1.4c-1.4,0.8-5.4,0-6.6-1.3
		c-4-4.6-7.9-9.2-11.9-13.8c-0.9-1-1.8-2.1-3.4-3c0,0.7,0,1.5,0,2.2c0,4.4-0.1,8.7,0.1,13.1c0.1,2.6-0.8,3.4-3.2,3.1
		c-0.6-0.1-1.3-0.1-2.2-0.1C180.5,377.1,180.5,368.1,180.5,359z"/>
	<path class="st2" d="M101.4,386.3c0-5.7,0-10.9,0-16.2c0-3.1,0.1-6.3,0-9.4c0-1.3,0.2-2,1.8-2c5.5,0.1,11-0.2,16.5,0.1
		c7.2,0.4,11.2,9,6.9,14.9c-1,1.4-2.9,2.3-4.6,3.6c1.9,2.6,4,5.4,6.1,8.3c-3.4,1.4-6,0.7-8.1-2c-2.8-3.6-5.7-7.2-9-11.3
		c2.9,0,5.1,0.1,7.4,0c3-0.1,4-1.2,4-4.1c0-3.1-1.1-4.3-4.1-4.4c-3.6-0.1-7.2,0-11.1,0c0,4.2,0,8.1,0,12c0,2.6-0.1,5.3,0.1,7.9
		c0.1,2.1-0.7,2.6-2.6,2.5C103.8,386.2,102.8,386.3,101.4,386.3z"/>
	<path class="st1" d="M337.9,380.2c2.3-6.9,4.5-13,6.5-19.3c0.6-1.7,1.5-2.6,3.2-2.1c0.9,0.3,1.8,1.3,2.1,2.2
		c1.9,5.4,3.7,10.9,5.5,16.3c0.3,0.8,0.6,1.5,1.1,2.9c1.9-5.3,3.5-10.1,5.1-14.8c0.5-1.3,1-2.6,1.4-4c1-3.1,1.4-3.3,5-2.4
		c-1.1,3.1-2.2,6.1-3.3,9.2c-1.8,5.2-3.6,10.4-5.3,15.6c-0.5,1.5-1,2.3-2.9,2.3c-1.9,0-2.6-0.8-3.1-2.4c-1.7-5.3-3.5-10.6-5.3-15.9
		c-0.3-0.8-0.6-1.5-1-2.6c-2.3,6.6-4.5,12.7-6.5,18.9c-0.5,1.5-1.2,1.9-2.6,1.9c-1.4,0-2.3-0.2-2.8-1.7c-2.7-8.2-5.5-16.3-8.3-24.5
		c-0.1-0.3-0.1-0.6-0.1-0.9c3.3-1,3.8-0.7,4.8,2.2C333.5,367.4,335.6,373.4,337.9,380.2z"/>
	<path class="st1" d="M244.7,371.4c1,1.8,2.3,3.2,2.7,4.9c1.4,6.1-1.8,9.9-8.1,10c-5,0-10,0-15.1,0c-1.6,0-2.4-0.3-2.3-2.2
		c0.1-7.7,0.1-15.5,0-23.2c0-1.8,0.7-2.2,2.3-2.2c4.8,0.1,9.5,0,14.3,0.1c6.7,0.2,9.9,6.2,6.4,12.1
		C244.8,371.1,244.6,371.4,244.7,371.4z M226.1,374.1c0,2.5-0.1,4.8,0.1,7c0,0.5,1,1.3,1.5,1.3c4.2,0.1,8.4,0.1,12.6,0
		c2.4-0.1,3.2-1.6,3.2-3.8c0-2.6-1.1-4.4-3.2-4.5C235.7,373.9,231.1,374.1,226.1,374.1z M226.1,362.6c0,2.4-0.1,4.4,0.1,6.5
		c0,0.5,0.8,1.4,1.2,1.4c4,0.1,8.1,0.3,12.1-0.1c2.5-0.2,2.7-2.5,2.6-4.6c-0.1-1.9-1-3-2.8-3.1C235,362.5,230.8,362.6,226.1,362.6z"
		/>
	<path class="st1" d="M306.3,386.1c-2.4,0-4.8,0.2-7.1-0.1c-4.4-0.5-7.1-2.9-7.5-7.2c-0.4-4.4-0.4-8.9,0.1-13.2
		c0.5-4.2,3.5-6.7,7.7-6.9c4.2-0.2,8.4-0.2,12.6,0c5.3,0.3,8.2,3.2,8.4,8.7c0.1,3.5,0.1,7.1,0,10.6c-0.2,5-3.3,8-8.3,8.2
		C310.2,386.3,308.2,386.2,306.3,386.1C306.3,386.2,306.3,386.2,306.3,386.1z M305.9,362.5c-0.9,0-1.8,0-2.7,0c-0.9,0-1.8,0-2.7,0
		c-2.8,0.2-4.5,1.7-4.6,4.4c-0.1,3.6-0.1,7.2,0,10.8c0.1,2.5,1.7,4.4,4,4.5c3.9,0.2,7.9,0.2,11.8,0c2.6-0.1,4.2-1.7,4.3-4.2
		c0.2-3.8,0.2-7.6,0-11.3c-0.2-2.8-1.9-4.1-4.8-4.3C309.5,362.5,307.7,362.5,305.9,362.5z"/>
	<path class="st1" d="M261.7,362.6c0,7.9,0,15.6,0,23.5c-1.5,0-2.8,0-4.2,0c0-9,0-17.9,0-27c0.3-0.1,0.7-0.3,1-0.3
		c5.3,0,10.5-0.1,15.8,0c3.1,0.1,6,0.9,7.2,4.1c1.4,3.7,1.4,7.5-0.8,10.8c-0.9,1.3-2.7,1.9-4.3,2.9c2,2.9,4.1,5.9,6.4,9.2
		c-2.9,0.6-5,0.6-6.4-2.1c-0.9-1.7-2.3-3.2-3.4-4.8c-0.9-1.4-1.9-2.4-3.8-2.8c-1.3-0.2-2.2-1.9-3.3-2.9c0.1-0.3,0.2-0.6,0.3-0.8
		c2.6,0,5.2,0.1,7.8,0c3.2-0.1,4.2-1.3,4.1-5c0-3.4-1.1-4.8-4.1-4.9C270,362.5,266.1,362.6,261.7,362.6z"/>
	<path class="st1" d="M443.1,362.6c0,5.4,0,10.5,0,15.7c0,1.5,0,3,0,4.4c0,3.8,0,3.9-4.1,3.2c0-8.9,0-17.9,0-27
		c6.2,0,12.3-0.2,18.3,0.1c4,0.2,6.2,3,6.4,7.1c0,0.5,0,1,0,1.5c0.1,4.4-1.3,7.8-6.3,8.7c2.3,3.3,4.4,6.3,6.6,9.5
		c-2.8,0.8-4.8,0.5-6.2-1.9c-1-1.6-2.2-3.1-3.2-4.6c-1-1.5-1.9-2.8-4.1-3.1c-1.2-0.2-2.2-1.8-3.2-2.7c0.1-0.3,0.2-0.6,0.3-0.9
		c2.4,0,4.8,0,7.2,0c1.7,0,3.7,0.1,4.1-1.8c0.4-2.1,0.3-4.3-0.1-6.4c-0.1-0.7-1.8-1.5-2.8-1.6C451.8,362.5,447.7,362.6,443.1,362.6z
		"/>
	<path class="st1" d="M410.6,370.5c5.1,0,9.8,0,14.6,0c2.9,0,2.9,0.1,2.3,3.5c-4.3,0-8.6,0-12.9,0c-4.3,0-4.3,0-4,4.2
		c0.2,3.2,1.2,4.2,4.5,4.2c4.8,0,9.5,0,14.4,0c0,1.3,0,2.3,0,3.8c-2.7,0-5.4,0-8.1,0c-2.5,0-5.1,0.1-7.6,0c-4.7-0.2-7-2.4-7.1-7
		c-0.1-4.4-0.2-8.7,0-13.1c0.2-4.9,2.3-7.1,7.2-7.3c4.7-0.2,9.4,0,14.1-0.1c1.4,0,1.8,0.6,1.8,1.9c0,1.3-0.4,1.9-1.8,1.9
		c-3.9-0.1-7.9,0-11.8,0c-4.5,0-5.4,0.8-5.4,5.3C410.6,368.5,410.6,369.3,410.6,370.5z"/>
	<path class="st1" d="M374.7,386.2c-0.5-3.6-0.5-3.6,2.6-3.7c4.2,0,8.4,0,12.6,0c3.2-0.1,4.4-1.2,4.5-4c0.1-2.9-1.2-4.2-4.4-4.4
		c-2.8-0.1-5.6,0-8.4-0.1c-5-0.1-7.3-2.4-7.5-7.2c-0.2-4.7,2.1-7.7,6.8-7.9c5.3-0.3,10.6-0.1,16.1-0.1c0,1.2,0,2.2,0,3.6
		c-0.9,0-1.7,0.1-2.6,0.1c-4.1,0-8.2,0-12.3,0c-2.7,0-4,1.4-4,3.9c0,2.5,1.2,3.8,4,3.9c3,0.1,5.9,0,8.9,0.1c4,0.2,6.8,2.3,7.5,5.6
		c1.3,5.9-1.8,10-7.8,10.1C385.3,386.3,380.1,386.2,374.7,386.2z"/>
	<path class="st2" d="M92.4,358.7c0,1.8,0,3.3,0,5.1c-3,0-5.9,0.1-8.9,0c-1.9-0.1-2.4,0.6-2.4,2.4c0.1,5.7,0,11.3,0,17
		c0,0.9,0,1.8,0,2.8c-2,0-3.7,0-5.7,0c0-3.3,0-6.5,0-9.7c0-3.4-0.1-6.7,0.1-10.1c0.1-2.1-0.7-2.5-2.5-2.5c-2.8,0.1-5.6,0-8.5,0
		c-0.1-0.5-0.3-0.9-0.3-1.3c-0.2-3.9-0.2-3.9,3.7-3.9c7.2,0,14.3,0,21.5,0C90.3,358.7,91.2,358.7,92.4,358.7z"/>
	<path class="st2" d="M451.7,417.1c-5.7,0-11.5,0-17.5,0C435.7,415.7,449.7,415.5,451.7,417.1z"/>
	<path class="st2" d="M105,417.1c-5.7,0-11.4,0-17.6,0C89.4,415.7,103.3,415.6,105,417.1z"/>
	<g>
		<path class="st1" d="M116.1,415.1v5.2h-1.8v-13h4.4c1.6,0,2.8,0.3,3.6,1c0.8,0.7,1.2,1.6,1.2,2.8c0,1.2-0.4,2.2-1.2,2.8
			s-2,1-3.5,1H116.1z M120.9,413.1c0.5-0.4,0.7-1,0.7-1.8c0-0.8-0.2-1.4-0.7-1.9c-0.5-0.4-1.3-0.6-2.4-0.6h-2.5v5h2.5
			C119.6,413.7,120.4,413.5,120.9,413.1z"/>
		<path class="st1" d="M138.8,420.4l-3.6-5.3h-1.9v5.3h-1.8v-13h4.6c1.6,0,2.8,0.4,3.5,1.1c0.8,0.7,1.2,1.6,1.2,2.8
			c0,1.1-0.3,1.9-0.9,2.6c-0.6,0.6-1.5,1-2.7,1.2l3.8,5.4H138.8z M133.2,413.8h2.6c2,0,3.1-0.8,3.1-2.5c0-1.7-1-2.5-3.1-2.5h-2.6
			V413.8z"/>
		<path class="st1" d="M150.6,407.4v13h-1.8v-13H150.6z"/>
		<path class="st1" d="M160.3,407.4l4.2,11.1l4.3-11.1h1.9l-5.1,13h-2.3l-5.1-13H160.3z"/>
		<path class="st1" d="M186.6,417.4h-6.1l-1.2,3h-1.9l5.1-12.8h2l5.1,12.8h-1.9L186.6,417.4z M186.1,416.1l-2.5-6.6l-2.5,6.6H186.1z
			"/>
		<path class="st1" d="M207.7,408.4c1.1,0.8,1.9,1.8,2.3,3.2h-1.9c-0.4-0.9-0.9-1.5-1.7-2.1s-1.8-0.8-2.9-0.8
			c-0.9,0-1.7,0.2-2.4,0.6c-0.7,0.4-1.3,1-1.7,1.8c-0.4,0.8-0.6,1.7-0.6,2.7c0,1,0.2,1.9,0.6,2.7c0.4,0.8,1,1.3,1.7,1.8
			c0.7,0.4,1.5,0.6,2.4,0.6c1.1,0,2.1-0.3,2.9-0.8s1.4-1.2,1.7-2.1h1.9c-0.4,1.4-1.2,2.4-2.3,3.2s-2.5,1.2-4.2,1.2
			c-1.3,0-2.4-0.3-3.4-0.8c-1-0.6-1.8-1.3-2.3-2.3c-0.6-1-0.8-2.1-0.8-3.4c0-1.3,0.3-2.4,0.8-3.4c0.6-1,1.3-1.8,2.3-2.3
			c1-0.6,2.1-0.8,3.4-0.8C205.2,407.2,206.6,407.6,207.7,408.4z"/>
		<path class="st1" d="M228.2,407.4l-4.5,8.1v4.9h-1.8v-4.9l-4.6-8.1h2.1l3.4,6.3l3.4-6.3H228.2z"/>
		<path class="st1" d="M237.2,418.4v2H235v-2H237.2z"/>
		<path class="st1" d="M264.1,417.4H258l-1.2,3h-1.9l5.1-12.8h2l5.1,12.8h-1.9L264.1,417.4z M263.5,416.1l-2.5-6.6l-2.5,6.6H263.5z"
			/>
		<path class="st1" d="M276.7,407.4v13h-1.8v-13H276.7z"/>
		<path class="st1" d="M286.8,418.4v2h-2.2v-2H286.8z"/>
		<path class="st1" d="M313.3,407.4v1.4h-6.1v4.5h5.1v1.3h-5.1v5.8h-1.8v-13H313.3z"/>
		<path class="st1" d="M328.7,420.4l-3.6-5.3h-1.9v5.3h-1.8v-13h4.6c1.6,0,2.8,0.4,3.5,1.1c0.8,0.7,1.2,1.6,1.2,2.8
			c0,1.1-0.3,1.9-0.9,2.6c-0.6,0.6-1.5,1-2.7,1.2l3.8,5.4H328.7z M323.2,413.8h2.6c2,0,3.1-0.8,3.1-2.5c0-1.7-1-2.5-3.1-2.5h-2.6
			V413.8z"/>
		<path class="st1" d="M340.5,408.7v4.4h5.3v1.3h-5.3v4.5h5.9v1.4h-7.7v-13h7.7v1.4H340.5z"/>
		<path class="st1" d="M356.4,408.7v4.4h5.3v1.3h-5.3v4.5h5.9v1.4h-7.7v-13h7.7v1.4H356.4z"/>
		<path class="st1" d="M381.3,417.3c-0.6,1-1.4,1.7-2.5,2.3c-1.1,0.5-2.4,0.8-3.9,0.8h-4.4v-13h4.4c1.5,0,2.9,0.3,3.9,0.8
			c1.1,0.5,1.9,1.3,2.5,2.2c0.6,1,0.8,2.1,0.8,3.5C382.2,415.2,381.9,416.3,381.3,417.3z M378.9,417.6c1-0.9,1.4-2.1,1.4-3.7
			s-0.5-2.8-1.4-3.7c-1-0.9-2.3-1.3-4.2-1.3h-2.5v10h2.5C376.6,418.9,377.9,418.4,378.9,417.6z"/>
		<path class="st1" d="M400.3,408.1c1,0.6,1.8,1.4,2.4,2.4c0.6,1,0.9,2.2,0.9,3.4c0,1.3-0.3,2.4-0.9,3.4c-0.6,1-1.4,1.8-2.4,2.4
			s-2.2,0.8-3.5,0.8c-1.3,0-2.5-0.3-3.5-0.8c-1-0.6-1.9-1.4-2.5-2.4c-0.6-1-0.9-2.2-0.9-3.4c0-1.3,0.3-2.4,0.9-3.4
			c0.6-1,1.4-1.8,2.5-2.4c1-0.6,2.2-0.8,3.5-0.8C398.1,407.2,399.3,407.5,400.3,408.1z M394.3,409.4c-0.8,0.4-1.3,1-1.8,1.8
			c-0.4,0.8-0.6,1.7-0.6,2.7c0,1,0.2,1.9,0.6,2.7c0.4,0.8,1,1.4,1.8,1.8c0.8,0.4,1.6,0.6,2.6,0.6c0.9,0,1.8-0.2,2.5-0.6
			c0.8-0.4,1.3-1,1.8-1.8c0.4-0.8,0.6-1.7,0.6-2.7c0-1-0.2-1.9-0.6-2.7c-0.4-0.8-1-1.4-1.8-1.8c-0.8-0.4-1.6-0.6-2.5-0.6
			C395.9,408.8,395,409,394.3,409.4z"/>
		<path class="st1" d="M425.9,407.6v12.8h-1.8v-10.2l-4.4,10.2h-1.6l-4.4-10.2v10.2H412v-12.8h2.1l4.8,10.7l4.8-10.7H425.9z"/>
	</g>
</g>
</svg>
